<?xml version="1.0" encoding="UTF-8" standalone="no"?>
<!-- Created with Inkscape (http://www.inkscape.org/) -->

<svg
   xmlns:dc="http://purl.org/dc/elements/1.1/"
   xmlns:cc="http://creativecommons.org/ns#"
   xmlns:rdf="http://www.w3.org/1999/02/22-rdf-syntax-ns#"
   xmlns:svg="http://www.w3.org/2000/svg"
   xmlns="http://www.w3.org/2000/svg"
   xmlns:sodipodi="http://sodipodi.sourceforge.net/DTD/sodipodi-0.dtd"
   xmlns:inkscape="http://www.inkscape.org/namespaces/inkscape"
   width="32.999996mm"
   height="33mm"
   viewBox="0 0 32.999996 33"
   version="1.1"
   id="svg8"
   sodipodi:docname="icon.svg"
   inkscape:version="0.92.4 5da689c313, 2019-01-14">
  <defs
     id="defs2" />
  <sodipodi:namedview
     id="base"
     pagecolor="#ffffff"
     bordercolor="#666666"
     borderopacity="1.0"
     inkscape:pageopacity="0.0"
     inkscape:pageshadow="2"
     inkscape:zoom="1.979899"
     inkscape:cx="-4.6404849"
     inkscape:cy="42.980375"
     inkscape:document-units="mm"
     inkscape:current-layer="layer1"
     showgrid="false"
     fit-margin-top="0"
     fit-margin-left="0"
     fit-margin-right="0"
     fit-margin-bottom="0"
     inkscape:window-width="1366"
     inkscape:window-height="698"
     inkscape:window-x="0"
     inkscape:window-y="0"
     inkscape:window-maximized="1"
     inkscape:snap-bbox="false"
     inkscape:snap-global="true"
     inkscape:snap-nodes="true" />
  <metadata
     id="metadata5">
    <rdf:RDF>
      <cc:Work
         rdf:about="">
        <dc:format>image/svg+xml</dc:format>
        <dc:type
           rdf:resource="http://purl.org/dc/dcmitype/StillImage" />
        <dc:title></dc:title>
      </cc:Work>
    </rdf:RDF>
  </metadata>
  <g
     inkscape:label="Layer 1"
     inkscape:groupmode="layer"
     id="layer1"
     transform="translate(-78.445133,-61.94304)">
    <path
       style="fill:#333333;stroke-width:0.21283744"
       d="m 88.100852,61.94304 -9.655719,23.343744 23.344287,9.656256 9.65571,-23.344231 z m 9.365942,13.440044 c 0.09519,-0.0066 0.179952,0.01982 0.254742,0.0794 0.06119,0.06618 0.09851,0.152283 0.112108,0.258161 0,0.244846 -0.152973,0.403591 -0.458937,0.476384 -0.101988,0.01985 -0.353569,0.0427 -0.754722,0.06917 -0.367155,0.01985 -0.802106,0.02971 -1.305245,0.02971 l -0.05104,0.704832 c -0.04081,0.502927 -0.126057,1.138397 -0.255243,1.906019 -0.122384,0.714684 -0.234333,1.293628 -0.336321,1.737 -0.05439,0.238224 -0.142867,0.612244 -0.265255,1.121786 -0.0272,0.125732 -0.07786,0.21184 -0.152644,0.258163 -0.09519,0.05293 -0.200716,0.0794 -0.316301,0.0794 -0.08159,0 -0.153014,-0.04306 -0.214205,-0.129082 -0.04759,-0.09266 -0.07157,-0.188614 -0.07157,-0.287876 0.10879,-0.469838 0.241498,-1.138503 0.397881,-2.005387 0.176779,-0.992617 0.336675,-2.100713 0.479458,-3.324939 -0.645924,0 -1.074452,0.01299 -1.285227,0.03946 l -0.805771,0.09937 c -0.135983,0 -0.2378,-0.03945 -0.305792,-0.118855 -0.068,-0.07941 -0.102096,-0.152531 -0.102096,-0.218705 v -0.01997 c 0,-0.07941 0.0304,-0.165031 0.09158,-0.257676 0.07479,-0.08602 0.173395,-0.132692 0.295782,-0.139309 z m -6.306019,0.08914 c 0.122385,0 0.231121,0.03319 0.326309,0.09937 0.09519,0.07279 0.143138,0.16876 0.143138,0.287873 0,0.251463 -0.156686,0.377015 -0.469447,0.377015 -0.496344,0 -1.148766,0.03319 -1.957871,0.09937 -1.08107,0.09265 -1.665785,0.211947 -1.754174,0.35753 -0.05439,0.09265 -0.112473,0.218198 -0.173666,0.377015 -0.0408,0.105881 -0.09837,0.278098 -0.173165,0.516325 l -0.142637,0.506095 2.396288,-0.278132 c 0.203975,0 0.306292,0.126039 0.306292,0.377502 0,0.218375 -0.221184,0.383855 -0.663131,0.496353 -0.183579,0.04633 -0.475686,0.08577 -0.876839,0.118851 -0.380754,0.02647 -0.836467,0.03994 -1.366804,0.03994 -0.129186,0.423517 -0.251765,0.959406 -0.367353,1.607915 -0.09519,0.562483 -0.142635,0.97282 -0.142635,1.230899 0,0.23161 -0.135923,0.370636 -0.407891,0.416958 -0.251568,0 -0.377358,-0.139026 -0.377358,-0.416958 0,-0.238227 0.06451,-0.7212 0.193683,-1.44912 0.135985,-0.761005 0.288958,-1.456128 0.45894,-2.084785 0.231172,-0.840415 0.4657,-1.505467 0.703671,-1.995158 0.101989,-0.218376 0.782098,-0.396842 2.039949,-0.53581 0.904293,-0.09926 1.672372,-0.149052 2.304701,-0.149052 z m 8.738341,0 c 0.373954,0 0.805694,0.460129 1.295244,1.379952 0.30595,0.575718 0.67962,1.4291 1.12156,2.560682 0.36715,0.933058 0.56117,1.403048 0.58155,1.409663 0.0341,0 0.12247,-0.251588 0.26526,-0.754516 0.0613,-0.224992 0.1257,-0.48957 0.19369,-0.79397 0.0341,-0.165437 0.0985,-0.47668 0.19368,-0.933284 0.12918,-0.661743 0.24484,-1.468945 0.34684,-2.421858 0,-0.231611 0.14976,-0.363897 0.44892,-0.396984 0.0884,0 0.16623,0.03632 0.23422,0.10911 0.0611,0.07279 0.0921,0.155774 0.0921,0.248419 0,0.588954 -0.0884,1.379559 -0.26525,2.372175 -0.16999,0.966146 -0.39117,1.813277 -0.66313,2.541195 -0.30597,0.820564 -0.59487,1.230901 -0.86684,1.230901 -0.25157,0 -0.56443,-0.466864 -0.93839,-1.399922 l -1.0505,-2.600625 c -0.38076,-0.939675 -0.65581,-1.409178 -0.82578,-1.409178 -0.231176,0 -0.475845,0.724218 -0.734214,2.173439 -0.08835,0.496307 -0.231228,1.528643 -0.428405,3.096977 -0.0272,0.211756 -0.173751,0.317587 -0.438918,0.317587 -0.231173,0 -0.346332,-0.138537 -0.346332,-0.416469 0,-0.608806 0.108737,-1.426355 0.326312,-2.452059 0.17678,-0.860267 0.387331,-1.667467 0.632104,-2.421858 0.299165,-0.959529 0.574717,-1.439377 0.826289,-1.439377 z"
       id="rect3717"
       inkscape:connector-curvature="0" />
  </g>
</svg>
